<svg width="824" height="294" viewBox="0 0 824 294" fill="none" xmlns="http://www.w3.org/2000/svg">
<path d="M129.046 293.265V191.514H129.985V186.234H128.942V148.85H129.673V142.649L129.045 142.478V124.04L134.992 123.283V95.3722L136.766 94.8675C136.766 94.8675 136.662 94.2802 136.766 93.6939C135.202 92.6867 135.827 90.3424 137.495 89.9215C139.167 89.5017 139.895 90.0063 139.895 90.0063V77.6005L141.225 77.3079C140.496 76.5519 140.339 74.8561 141.695 75.1073C143.05 75.3607 142.606 77.0131 142.606 77.0131L144.401 76.5943V59.9343L145.675 59.5579C145.675 59.5579 145.876 59.288 146.547 58.8041C145.004 57.5104 145.675 55.7349 146.948 54.979C148.222 54.2251 149.092 54.8725 149.092 54.8725V37.2931L152.981 35.9995V35.0854L151.909 34.1702C151.909 34.1702 151.573 32.6615 151.638 31.583C151.706 30.5075 152.915 30.2376 152.915 30.2376V1.59881L154.321 0.735352L156.535 2.56567L156.358 30.1994C156.358 30.1994 156.996 30.1425 157.455 30.7123C157.917 31.282 158.06 31.9356 158.023 32.4506C157.989 32.9635 157.492 34.2457 156.358 34.3584C156.358 34.6138 156.428 35.2694 156.428 35.2694C156.428 35.2694 158.449 34.7276 159.229 34.9572C160.008 35.1836 159.583 36.6634 159.583 36.7503C159.583 36.835 158.344 37.6613 158.344 37.6613L159.94 39.1721V58.8123L160.943 59.7037C160.943 59.7037 161.647 59.3914 162.43 59.6437C163.214 59.894 163.058 61.0263 162.273 61.2765L164.463 63.476V77.6233L165.402 78.313C165.402 78.313 166.107 77.0555 166.889 77.1807C167.672 77.3079 167.202 79.6955 166.342 80.1981L168.793 82.5465V96.2108L170.045 97.217C170.045 97.217 170.985 95.7062 172.027 96.1271C173.071 96.5459 171.194 98.6399 171.194 98.6399L173.28 100.151V122.196L174.949 122.029V124.29L177.033 124.039V127.057L179.122 126.808V146.418L178.391 146.671L178.288 152.793L178.914 153.297V188.418L178.077 188.838V193.701L178.809 194.286V293.268H129.046V293.265Z" fill="#040000"/>
<path d="M62.4526 293.265V248.815L68.0282 248.02V164.087L83.5532 161.702L103.459 165.28V293.265H62.4526Z" fill="#040000"/>
<path d="M253.954 187.115C253.954 184.907 253.954 180.527 253.954 180.527L248.68 185.496L247.184 185.036L246.394 185.16L241.477 180.528C241.477 180.528 241.477 183.635 241.477 185.937L239.619 186.231V175.093L236.567 174.298C236.567 172.298 236.567 167.27 236.567 167.27L230.726 172.775L230.462 172.707L229.91 172.752L224.094 167.27C224.094 167.27 224.094 170.917 224.094 173.236L220.907 173.5V160.772L216.129 160.066C216.129 157.816 216.129 153.612 216.129 153.612L210.212 159.191L210.157 159.182L209.641 159.256L203.654 153.612C203.654 153.612 203.654 157.872 203.654 160.113L201.795 160.376V192.198L199.009 192.994V293.265H257.533V188.218L253.954 187.115Z" fill="#040000"/>
<path d="M393.698 293.265V157.524L408.825 156.33L458.192 158.32V293.265H393.698Z" fill="#040000"/>
<path d="M371.004 293.265V156.726H365.031V153.148L355.874 152.751V149.171H357.866V146.386H346.318H334.774V149.171H336.764V152.751L327.607 153.148V156.726H321.634V293.265H371.004Z" fill="#040000"/>
<path d="M308.372 174.682V162.083L307.354 161.611L306.34 161.966V175.174L298.544 177.05V293.265H323.627V177.391L308.372 174.682Z" fill="#040000"/>
<path d="M357.866 182.98L372.993 182.586L382.152 183.778L381.354 188.553H385.337V293.265H348.311V188.152L357.866 182.98Z" fill="#040000"/>
<path d="M499.745 145.086V122.231L490.746 121.075L487.523 121.546V118.348L487.077 118.224L486.631 118.348V121.677L480.207 122.615V145.342L479.311 145.855V162.291H475.969H472.628V145.855L471.725 145.342V122.615L468.5 122.142V119.422L468.053 119.296L467.609 119.422V122.013L461.188 121.075L456.432 121.683V115.254L455.725 115.056L455.022 115.254V121.865L452.195 122.231V145.086L450.648 145.342V293.265H501.284V145.341L499.745 145.086ZM456.689 132.887L454.056 133.271V125.442L456.689 125.054V132.887ZM469.286 133.401H467.36V126.336L463.759 125.952V124.412L469.285 125.052V133.401H469.286ZM488.177 125.953L484.577 126.337V133.402H482.651V125.054L488.177 124.414V125.953ZM497.88 133.271L495.243 132.887V125.053L497.88 125.441V133.271Z" fill="#040000"/>
<path d="M686.188 136.145L685.792 132.961H679.339V127.277L678.379 126.795L677.556 127.441C677.556 127.441 677.556 130.289 677.556 132.961H676.236V136.145L668.671 137.338V293.265H696.14V138.135L686.188 136.145Z" fill="#040000"/>
<path d="M663.229 140.918L662.832 137.734H662.672V125.267L661.323 124.585L660.166 125.496C660.166 125.496 660.166 127.558 660.166 130.104L659.526 129.781L658.585 130.517C658.585 130.517 658.585 134.456 658.585 137.734H653.277V140.918L645.712 142.112V293.265H673.182V142.906L663.229 140.918Z" fill="#040000"/>
<path d="M763.159 147.577V145.602L762.05 145.325L761.096 145.64C761.096 145.64 761.096 146.389 761.096 147.065L758.78 146.484L758.379 143.302H753.962V139.049L753.152 138.638L752.457 139.186C752.457 139.186 752.457 141.219 752.457 143.302H746.487V141.404L744.573 141.127L742.937 141.442C742.937 141.442 742.937 142.57 742.937 143.302H736.602V139.049L735.791 138.638L735.093 139.186C735.093 139.186 735.093 141.219 735.093 143.302H730.516V146.484L728.127 146.965V145.777L727.015 145.5L726.065 145.821C726.065 145.821 726.065 146.668 726.065 147.375L722.552 148.076V293.265H766.746V148.474L763.159 147.577Z" fill="#040000"/>
<path d="M732.502 167.866H691.098V293.265H732.502V167.866Z" fill="#040000"/>
<path d="M634.032 149.304L651.285 146.386L669.068 148.242V293.265H634.032V149.304Z" fill="#040000"/>
<path d="M641.198 155.934H623.417V293.265H641.198V155.934Z" fill="#040000"/>
<path d="M611.183 212.498V210.048L608.18 209.299L605.608 210.156C605.608 210.156 605.608 211.629 605.608 213.191L600.698 214.008V293.265H625.383V213.743L611.183 212.498Z" fill="#040000"/>
<path d="M609.437 293.265V192.079L600.191 191.306L590.178 192.846V293.265H609.437Z" fill="#040000"/>
<path d="M401.881 293.265V191.548L392.635 190.78L382.62 192.318V293.265H401.881Z" fill="#040000"/>
<path d="M601.194 293.265V170.121L598.113 169.543V168.003L594.067 167.234V162.229L589.444 161.844L584.821 162.229V163.767H579.426V162.229L574.806 161.844L570.181 162.229V167.234L566.136 168.003V169.543L563.053 170.121V293.265H601.194Z" fill="#040000"/>
<path d="M530.787 191.435H505.308V293.265H530.787V191.435Z" fill="#040000"/>
<path d="M509.553 194.617H496.813V293.265H509.553V194.617Z" fill="#040000"/>
<path d="M556.134 174.326V170.155L551.273 169.162L547.113 170.297C547.113 170.297 547.113 171.879 547.113 173.705L535.961 172.935V169.094L531.1 168.099L526.935 169.239C526.935 169.239 526.935 171.273 526.935 173.396L518.576 173.934V293.267H565.823V174.992L556.134 174.326Z" fill="#040000"/>
<path d="M183.616 208.937H194.765V215.833H201.667V293.265H176.717V215.833L181.494 215.302V212.651L183.616 208.937Z" fill="#040000"/>
<path d="M109.532 208.539V201.18L108.353 200.584L107.344 201.379C107.344 201.379 107.344 205.15 107.344 208.539H99.8774V293.265H132.125V208.539H109.532Z" fill="#040000"/>
<path d="M283.812 217.291H255.148V293.264H283.812V217.291Z" fill="#040000"/>
<path d="M294.163 220.869H275.85V293.264H294.163V220.869Z" fill="#040000"/>
<path d="M304.516 224.85H290.581V293.265H304.516V224.85Z" fill="#040000"/>
<path d="M33.7875 243.941V241.951H32.1956V243.941H28.6114V238.771H21.4451V243.941H14.2798V293.265H44.1395V243.941H33.7875Z" fill="#040000"/>
<path d="M75.0313 251.497V249.112H72.6425V246.329H61.0226V249.112H59.4297V251.497H57.4404V293.265H77.8175V251.497H75.0313Z" fill="#040000"/>
<path d="M801.127 229.885V226.213H797.457V221.932H779.582V226.213H777.134V229.885H774.07V293.265H805.417V229.885H801.127Z" fill="#040000"/>
<path d="M62.4529 256.14H39.2275V293.265H62.4529V256.14Z" fill="#040000"/>
<path d="M14.2797 258.262H2.06982V293.265H14.2797V258.262Z" fill="#040000"/>
<path d="M825.93 238.109H801.513V293.265H825.93V238.109Z" fill="#040000"/>
<path d="M781.341 239.169H761.17V293.264H781.341V239.169Z" fill="#040000"/>
</svg>
