<svg width="86" height="124" viewBox="0 0 86 124" fill="none" xmlns="http://www.w3.org/2000/svg">
<path fill-rule="evenodd" clip-rule="evenodd" d="M54.8298 46.9078C62.548 42.6523 67.7765 34.4368 67.7765 25C67.7765 11.1929 56.5836 0 42.7765 0C28.9694 0 17.7765 11.1929 17.7765 25C17.7765 34.4368 23.0051 42.6523 30.7233 46.9078C29.8735 48.7672 29.114 50.8222 28.4602 53.0389C14.6517 47.0419 2.10989 45.5584 0.235945 49.7642C-1.67464 54.0523 8.22734 62.6304 22.3526 68.9241C23.5174 69.4431 24.6745 69.9303 25.8183 70.3851C25.7906 71.2489 25.7765 72.1209 25.7765 73C25.7765 81.6345 27.1355 89.5782 29.4132 95.8733C29.1828 96.1186 28.9527 96.3662 28.7231 96.6162C18.2592 108.002 12.5786 119.808 16.035 122.984C19.3502 126.031 29.8665 120.033 39.953 109.492C40.8713 109.826 41.8146 110 42.7765 110C43.8435 110 44.8876 109.786 45.9001 109.377C56.0201 119.99 66.6009 126.042 69.9281 122.984C73.3846 119.808 67.7039 108.002 57.2401 96.6162C56.9116 96.2588 56.5824 95.9061 56.2526 95.5582C58.4624 89.3141 59.7765 81.4911 59.7765 73C59.7765 72.1303 59.7627 71.2677 59.7356 70.413C60.9023 69.9502 62.0829 69.4537 63.2715 68.9241C77.3968 62.6304 87.2987 54.0523 85.3882 49.7642C83.5114 45.552 70.9343 47.0464 57.1009 53.0663C56.4453 50.8391 55.683 48.7749 54.8298 46.9078Z" fill="black"/>
</svg>
