<svg width="254" height="197" viewBox="0 0 254 197" fill="none" xmlns="http://www.w3.org/2000/svg">
<path d="M211.656 0H42.3445V14.0667H211.689V0H211.656ZM42.3445 14.0667H14.1037V28.1333H42.3111L42.3445 14.0667ZM239.896 28.1333V14.0667H211.689V28.1333H239.896ZM239.896 28.1333V140.733H254V28.1333H239.896ZM0 28.1333V140.733H14.1037V28.1333H0ZM14.1037 140.733V154.8H42.3111V140.733H14.1037ZM211.656 154.8H239.863V140.733H211.656V154.8ZM42.3445 154.8V168.867H85.5V154.8H42.3445ZM141.104 168.867L100.5 181L93 187.5L56.5 197L93 172.433L112.5 168.867H155.207H211.656V154.8H141.104V168.867ZM85.5 168.867L95 181H100.5V162L85.5 154.8V168.867Z" fill="black"/>
</svg>
