<svg width="219" height="226" viewBox="0 0 219 226" fill="none" xmlns="http://www.w3.org/2000/svg">
<path d="M218.435 0H0V225.261H218.435V0Z" fill="#3F3D56"/>
<path d="M109.244 59.527C87.3374 59.527 73.6456 70.4804 68.1688 92.3874C76.3839 81.4339 85.9683 77.3264 96.9218 80.0648C103.171 81.6271 107.638 86.161 112.582 91.1797C120.637 99.3553 129.959 108.818 150.32 108.818C172.227 108.818 185.919 97.8641 191.396 75.9572C183.18 86.9106 173.596 91.0182 162.643 88.2798C156.393 86.7174 151.926 82.1836 146.982 77.1648C138.927 68.9892 129.605 59.527 109.244 59.527ZM68.1688 108.818C46.2619 108.818 32.57 119.771 27.0933 141.678C35.3084 130.725 44.8927 126.617 55.8462 129.355C62.0958 130.918 66.5626 135.452 71.5069 140.47C79.5614 148.646 88.8834 158.108 109.244 158.108C131.151 158.108 144.843 147.155 150.32 125.248C142.105 136.201 132.521 140.309 121.567 137.57C115.318 136.008 110.851 131.474 105.906 126.455C97.8519 118.28 88.5298 108.818 68.1688 108.818Z" fill="url(#paint0_linear_1_119)"/>
<defs>
<linearGradient id="paint0_linear_1_119" x1="22.6596" y1="90.8425" x2="164.565" y2="172.658" gradientUnits="userSpaceOnUse">
<stop stop-color="#2298BD"/>
<stop offset="1" stop-color="#0ED7B5"/>
</linearGradient>
</defs>
</svg>
